<?xml version="1.0" encoding="UTF-8"?>
<svg width="1200pt" height="1200pt" version="1.1" viewBox="0 0 1200 1200" xmlns="http://www.w3.org/2000/svg">
 <g>
  <path d="m515.86 1026h-142.23v-90.469c3.8867-1.4023 7.5469-3.3242 10.871-5.832l130.89-98.676-206.84-274.39-130.88 98.676c-18.422 13.871-22.117 40.152-8.2305 58.57l129.83 172.22v139.89l-142.25 0.003906c-21.348 0-38.723 17.387-38.723 38.723 0 21.348 17.363 38.746 38.723 38.746h358.85c21.348 0 38.723-17.387 38.723-38.746 0-21.336-17.363-38.723-38.723-38.723zm-334.55-321.07c-8.9531-11.855-6.5898-28.801 5.293-37.738l119.02-89.723 188.94 250.62-119.03 89.746c-0.63672 0.46875-1.2617 0.91016-1.9219 1.3086v-102.86c23.438-13.332 37.801-37.848 37.801-65.039 0-41.34-33.648-74.977-74.988-74.977-41.352 0-74.988 33.637-74.988 74.977 0 27.191 14.363 51.707 37.801 65.039v45.121zm334.55 383.65h-358.85c-13.152 0-23.855-10.691-23.855-23.855 0-13.152 10.715-23.832 23.855-23.832h157.12v-233.71l-4.1641-2.0391c-2.6055-1.2617-5.0625-2.7227-7.4023-4.3086-16.355-11.113-26.242-29.438-26.242-49.598 0-33.145 26.965-60.121 60.121-60.121s60.109 26.977 60.109 60.121c0 20.16-9.8633 38.484-26.242 49.598-2.3281 1.5977-4.8125 3.0469-7.4023 4.3086l-4.1641 2.0391v233.69h157.13c13.152 0 23.832 10.691 23.832 23.832 0 13.188-10.691 23.879-23.844 23.879z"/>
  <path d="m362.51 535.15c2.6406 0 5.2578-1.043 7.2227-3.1094l395.22-418.76c3.7578-3.9844 3.5742-10.246-0.39453-14.004-3.9961-3.7578-10.273-3.5742-14.016 0.39453l-395.25 418.77c-3.7578 3.9844-3.5742 10.246 0.40625 14.016 1.9219 1.8125 4.3672 2.6992 6.8047 2.6992z"/>
  <path d="m453.54 662.46c1.9453 2.5781 4.9219 3.9375 7.9219 3.9375 2.0898 0 4.1758-0.63672 5.9766-1.9922l453.29-341.71c4.3789-3.2891 5.2578-9.5156 1.9453-13.883-3.2773-4.3672-9.5039-5.2422-13.871-1.957l-453.32 341.73c-4.3672 3.2734-5.2305 9.5156-1.9453 13.871z"/>
  <path d="m1080.6 518.52c-2.5195-4.8594-8.4961-6.7578-13.355-4.2461l-511.41 264.67c-4.8477 2.5312-6.7578 8.5078-4.2461 13.355 1.7539 3.4219 5.2305 5.3633 8.8086 5.3633 1.5352 0 3.0977-0.34766 4.5469-1.1289l511.38-264.66c4.8828-2.5078 6.793-8.4844 4.2734-13.355z"/>
 </g>
</svg>
